<?xml version="1.0" encoding="utf-8"?>
<!-- Svg Vector Icons : http://www.onlinewebfonts.com/icon -->
<!DOCTYPE svg PUBLIC "-//W3C//DTD SVG 1.1//EN" "http://www.w3.org/Graphics/SVG/1.1/DTD/svg11.dtd">
<svg version="1.1" xmlns="http://www.w3.org/2000/svg" xmlns:xlink="http://www.w3.org/1999/xlink" x="0px" y="0px" viewBox="0 0 1000 1000" enable-background="new 0 0 1000 1000" xml:space="preserve">
<metadata> Svg Vector Icons : http://www.onlinewebfonts.com/icon </metadata>
<g><path d="M500,10C229.2,10,10,229.2,10,500c0,270.8,219.2,490,490,490c270.8,0,490-219.2,490-490C990,229.2,770.8,10,500,10z M775.9,770.8h-85.1V448.4c0-25.8,2.6-64.5,7.7-118.6H696c-7.7,30.9-18.1,61.9-30.9,95.4L530.9,770.8h-61.9L332.4,425.2c-12.9-36.1-20.6-67.1-28.4-95.4h-2.6c2.6,41.3,5.2,79.9,5.2,118.6v322.4h-82.5V229.2h108.3l147,366.2c2.6,7.7,7.7,23.2,15.5,43.8c2.6,7.7,2.6,15.5,5.2,18.1c7.7-23.2,15.5-46.4,23.2-61.9l144.4-366.2h108.3V770.8z"/></g>
</svg>